<svg height="384pt" viewBox="0 0 384 384" width="384pt" xmlns="http://www.w3.org/2000/svg"><path d="m368 192v32h-272.878906c10.398437-10.078125 16.878906-24.320312 16.878906-40 0-30.960938-25.039062-56-56-56-11.679688 0-22.398438 3.519531-31.359375 9.519531 22.878906-70.558593 89.199219-121.519531 167.359375-121.519531 1.601562 0 3.199219 0 4.71875.160156-8.078125 14.078125-12.71875 30.398438-12.71875 47.839844 0 53.039062 42.960938 96 96 96 30.160156 0 57.039062-13.839844 74.558594-35.519531 8.640625 20.800781 13.441406 43.597656 13.441406 67.519531zm0 0" fill="#ff7043"/><path d="m354.558594 124.480469c-17.519532 21.679687-44.398438 35.519531-74.558594 35.519531-53.039062 0-96-42.960938-96-96 0-17.441406 4.640625-33.761719 12.71875-47.839844 71.28125 1.761719 131.921875 46 157.839844 108.320313zm0 0" fill="#4dd0e1"/><path d="m304 224v88c0 30.878906-25.039062 56-56 56h-112c-30.960938 0-56-25.121094-56-56v-88zm0 0" fill="#e0f7fa"/><path d="m56 128c30.960938 0 56 25.039062 56 56 0 15.679688-6.480469 29.921875-16.878906 40h-78.242188c-.320312-.238281-.640625-.558594-.878906-.878906v-31.121094c0-19.039062 3.039062-37.359375 8.640625-54.480469 8.960937-6 19.679687-9.519531 31.359375-9.519531zm0 0" fill="#4dd0e1"/><g fill="#012e52"><path d="m197.65625.175781c-1.832031-.1523435-3.746094-.175781-5.65625-.175781-82.976562 0-155.921875 52.664062-182.046875 131.128906-.136719.304688-.234375.625-.34375.933594-.058594.160156-.121094.3125-.175781.472656-.105469.328125-.175782.671875-.289063 1-.089843.320313-.207031.625-.273437.953125-5.839844 18.558594-8.871094 37.878907-8.871094 57.511719v32c0 8.832031 7.167969 16 16 16h48v72c0 39.703125 32.296875 72 72 72h112c39.703125 0 72-32.296875 72-72v-72h48c8.832031 0 16-7.167969 16-16v-32c0-25.457031-4.929688-50.230469-14.664062-73.671875-29.015626-69.742187-96.359376-116.082031-171.679688-118.152344zm137.945312 121.335938c-14.800781 14.375-34.578124 22.488281-55.601562 22.488281-44.113281 0-80-35.886719-80-80 0-10.769531 2.207031-21.390625 6.359375-31.230469 55.503906 4.894531 104.609375 38.605469 129.242187 88.742188zm-247.808593 86.488281h-55.792969v-16c0-14.929688 2.175781-29.625 6.238281-43.832031 5.503907-2.703125 11.539063-4.167969 17.761719-4.167969 22.054688 0 40 17.945312 40 40 0 8.863281-2.960938 17.144531-8.207031 24zm200.207031 104c0 22.054688-17.945312 40-40 40h-112c-22.054688 0-40-17.945312-40-40v-72h192zm64-104h-228.238281c2.71875-7.664062 4.238281-15.769531 4.238281-24 0-39.703125-32.296875-72-72-72-.878906 0-1.734375.160156-2.617188.191406 24.847657-43.367187 68.714844-72.71875 118.9375-78.871094-2.824218 9.945313-4.320312 20.265626-4.320312 30.679688 0 61.761719 50.238281 112 112 112 24.632812 0 48.007812-8.03125 67.152344-22.433594 3.09375 12.523438 4.847656 25.355469 4.847656 38.433594zm0 0"/><path d="m232 320c8.832031 0 16-7.167969 16-16v-24.160156c0-8.832032-7.167969-16-16-16s-16 7.167968-16 16v24.167968c0 8.832032 7.167969 15.992188 16 15.992188zm0 0"/><path d="m152 320c8.832031 0 16-7.167969 16-16v-24.238281c0-8.832031-7.167969-16-16-16s-16 7.167969-16 16v24.238281c0 8.839844 7.167969 16 16 16zm0 0"/></g></svg>