<svg xmlns="http://www.w3.org/2000/svg" width="24" height="24" fill="none" viewBox="0 0 24 24">
    <path fill="#A1B3D3" d="M2.5 3.25c-.414 0-.75.336-.75.75s.336.75.75.75v-1.5zm18 1.5c.414 0 .75-.336.75-.75s-.336-.75-.75-.75v1.5zm-18 6.5c-.414 0-.75.336-.75.75s.336.75.75.75v-1.5zm18 1.5c.414 0 .75-.336.75-.75s-.336-.75-.75-.75v1.5zm-11 6.5c-.414 0-.75.336-.75.75s.336.75.75.75v-1.5zm11 1.5c.414 0 .75-.336.75-.75s-.336-.75-.75-.75v1.5zm-18-16h18v-1.5h-18v1.5zm0 8h18v-1.5h-18v1.5zm7 8h11v-1.5h-11v1.5z"/>
</svg>
