<svg height="384pt" viewBox="0 0 384 384" width="384pt" xmlns="http://www.w3.org/2000/svg"><path d="m232 320c8.832031 0 16-7.167969 16-16v-24.113281c0-8.832031-7.167969-16-16-16s-16 7.167969-16 16v24.113281c0 8.839844 7.167969 16 16 16zm0 0"/><path d="m152 320c8.832031 0 16-7.167969 16-16v-24.175781c0-8.832031-7.167969-16-16-16s-16 7.167969-16 16v24.175781c0 8.839844 7.167969 16 16 16zm0 0"/><path d="m369.726562 119.464844c-28.679687-70-97.519531-119.464844-177.726562-119.464844-84.65625 0-156.640625 55.097656-182.105469 131.296875-.238281.558594-.40625 1.128906-.574219 1.703125-6.03125 18.609375-9.320312 38.425781-9.320312 59v32c0 8.832031 7.167969 16 16 16h48v72c0 39.703125 32.296875 72 72 72h112c39.703125 0 72-32.296875 72-72v-72h48c8.832031 0 16-7.167969 16-16v-32c0-25.527344-5.046875-49.878906-14.136719-72.183594-.03125-.121094-.09375-.230468-.136719-.351562zm-34.253906 2.167968c-14.785156 14.304688-34.503906 22.375-55.472656 22.375-44.113281 0-80-35.886718-80-80 0-10.785156 2.214844-21.421874 6.382812-31.273437 56.792969 5.089844 105 39.992187 129.089844 88.898437zm-247.679687 86.367188h-55.792969v-16c0-15.222656 2.273438-29.902344 6.265625-43.863281 5.453125-2.695313 11.488281-4.136719 17.734375-4.136719 22.054688 0 40 17.945312 40 40 0 8.871094-2.960938 17.152344-8.207031 24zm200.207031 104c0 22.054688-17.945312 40-40 40h-112c-22.054688 0-40-17.945312-40-40v-72h192zm64-104h-228.238281c2.71875-7.65625 4.238281-15.761719 4.238281-24 0-39.703125-32.296875-72-72-72-.832031 0-1.632812.152344-2.464844.183594 24.5625-42.441406 67.976563-72.566406 118.769532-78.839844-2.808594 9.9375-4.304688 20.25-4.304688 30.65625 0 61.761719 50.238281 112 112 112 24.625 0 48-8.03125 67.144531-22.425781 3.054688 12.335937 4.855469 25.160156 4.855469 38.425781zm0 0"/></svg>